# xmcd
#
# Track frame offsets: 
#        150
#        11400
#        25200
#        42075
#        57225
#        76950
#        91500
#        103500
#        117525
#        128625
#        144225
#        160050
#        174675
#
# Disc length: 2471 seconds
#
# Revision: 4
# Processed by: cddbd v1.5.2PL0 Copyright (c) Steve Scherf et al.
# Submitted via: ExactAudioCopy v1.0b4
#
DISCID=9609a50d
DTITLE=Various Artist - Chicago The Blues Today Vol 3
DYEAR=1966
DGENRE=Blues
TTITLE0=Johnny Young's South Side Blues Band - Johnny Young's South Si
TTITLE0=de Blues Band - One More Time
TTITLE1=Johnny Young's South Side Blues Band - Johnny Young's South Si
TTITLE1=de Blues Band - Kid Man Blues
TTITLE2=Johnny Young's South Side Blues Band - Johnny Young's South Si
TTITLE2=de Blues Band - My Black Mare
TTITLE3=Johnny Young's South Side Blues Band - Johnny Young's South Si
TTITLE3=de Blues Band - Stealin' Back
TTITLE4=Johnny Young's South Side Blues Band - Johnny Young's South Si
TTITLE4=de Blues Band - I Got Mine In Time
TTITLE5=Johnny Young's South Side Blues Band - Johnny Young's South Si
TTITLE5=de Blues Band - Tighten Up On It
TTITLE6=The Johnny Shines Blues Band - The Johnny Shines Blues Band - 
TTITLE6=Dynaflow Blues
TTITLE7=The Johnny Shines Blues Band - The Johnny Shines Blues Band - 
TTITLE7=Black Spider Blues
TTITLE8=The Johnny Shines Blues Band - The Johnny Shines Blues Band - 
TTITLE8=Layin' Down My Shoes And Clothes
TTITLE9=The Johnny Shines Blues Band - The Johnny Shines Blues Band - 
TTITLE9=If I Get Lucky
TTITLE10=Big Walter Horton's Blues Harp Band - Big Walter Horton's Blu
TTITLE10=es Harp Band - Rockin' My Boogie
TTITLE11=The Johnny Shines Blues Band - The Johnny Shines Blues Band -
TTITLE11=Mr. Boweevil
TTITLE12=The Johnny Shines Blues Band - The Johnny Shines Blues Band -
TTITLE12=Hey, Hey
EXTD=
EXTT0=
EXTT1=
EXTT2=
EXTT3=
EXTT4=
EXTT5=
EXTT6=
EXTT7=
EXTT8=
EXTT9=
EXTT10=
EXTT11=
EXTT12=
PLAYORDER=
